Coordinates
version=1
nRows=12
nColumns=24
inDegrees=yes

Units are S.I. units (second, meters, Newtons, ...)
Angles are in degrees.

endheader
time	pelvis_tilt	pelvis_list	pelvis_rotation	pelvis_tx	pelvis_ty	pelvis_tz	hip_flexion_r	hip_adduction_r	hip_rotation_r	knee_angle_r	ankle_angle_r	subtalar_angle_r	mtp_angle_r	hip_flexion_l	hip_adduction_l	hip_rotation_l	knee_angle_l	ankle_angle_l	subtalar_angle_l	mtp_angle_l	lumbar_extension	lumbar_bending	lumbar_rotation
      4.27500000	     -8.73142051	      2.64419064	     -9.22730632	     -0.57330487	     -0.04982847	      0.62536300	     -8.80955533	     -0.62223155	      4.44089928	    -11.33232762	     14.20694469	      2.91955657	      7.05974848	     39.18029338	     -3.66234493	    -30.89613169	    -18.99742591	     -1.08423628	     18.71684727	     -1.16321587	      6.13968037	     -0.57371205	     13.15361608
      4.28000000	     -8.78305249	      3.05968209	     -9.21603271	     -0.56566015	     -0.05105843	      0.62518937	     -8.95374053	     -1.15170692	      4.22667387	    -11.83793949	     14.16524193	      3.13646219	      7.06760690	     39.18019478	     -3.18285485	    -30.73989294	    -19.34523360	     -1.76245889	     17.57626164	     -0.55087813	      6.36398996	     -1.06043773	     13.17673448
      4.28500000	     -8.83355106	      3.47035856	     -9.30147795	     -0.55807891	     -0.05219911	      0.62509191	     -9.05896241	     -1.68934094	      4.19160084	    -12.38732928	     14.03448834	      3.29841866	      7.10708769	     39.19892870	     -2.78154546	    -30.56758794	    -19.79819847	     -2.47095958	     16.42562911	     -0.10560623	      6.57834139	     -1.52300361	     13.29481573
      4.29000000	     -8.88710915	      3.91098515	     -9.30918959	     -0.55041008	     -0.05330637	      0.62492036	     -9.15633156	     -2.25393336	      4.04034491	    -12.95741451	     13.85781850	      3.50655050	      7.16684414	     39.25680481	     -2.31210762	    -30.26523317	    -20.31790815	     -3.29091163	     15.23430138	      0.42151088	      6.81348099	     -2.03613421	     13.32713951
      4.29500000	     -8.93832866	      4.36614286	     -9.33752363	     -0.54268751	     -0.05434618	      0.62473667	     -9.23631019	     -2.84334805	      3.93000144	    -13.55319194	     13.60200015	      3.70846157	      7.25162127	     39.34849086	     -1.85319682	    -29.91340542	    -20.94545173	     -4.06697054	     14.01738775	      0.82160574	      7.05785735	     -2.54978098	     13.40264535
      4.30000000	     -8.98800002	      4.83404570	     -9.32095391	     -0.53496797	     -0.05530407	      0.62451705	     -9.29116062	     -3.44411367	      3.76119128	    -14.19873928	     13.26945555	      3.93669613	      7.37306464	     39.48040747	     -1.37152668	    -29.47686833	    -21.65895324	     -4.84924583	     12.85130123	      1.14617117	      7.29755336	     -3.09153361	     13.40281441
      4.30500000	     -9.03288437	      5.30819895	     -9.28507142	     -0.52719990	     -0.05618836	      0.62428725	     -9.32788614	     -4.05381603	      3.57909317	    -14.88933552	     12.85247616	      4.18841392	      7.53950415	     39.64337982	     -0.88519040	    -28.98372380	    -22.46925151	     -5.52418775	     11.71350270	      1.35628575	      7.54237235	     -3.64060377	     13.38970613
      4.31000000	     -9.07437994	      5.77437624	     -9.22544388	     -0.51944155	     -0.05697500	      0.62402487	     -9.33873214	     -4.65811641	      3.39233303	    -15.63212894	     12.33240851	      4.47043420	      7.75849382	     39.83667284	     -0.40602688	    -28.45368762	    -23.36846948	     -6.09990776	     10.65292579	      1.43195739	      7.77733403	     -4.18775300	     13.36617478
      4.31500000	     -9.12387626	      6.26722447	     -9.19104346	     -0.51157812	     -0.05772067	      0.62384796	     -9.30677796	     -5.28427350	      3.33320709	    -16.43766689	     11.71697922	      4.64082393	      7.95645344	     40.04989107	      0.05458857	    -28.02742665	    -24.34643743	     -6.44097930	      9.73155902	      1.38248426	      8.04858475	     -4.75857185	     13.32949001
      4.32000000	     -9.15900699	      6.67713177	     -9.09448624	     -0.50384022	     -0.05834299	      0.62348822	     -9.23761757	     -5.84687901	      3.06751145	    -17.34194797	     10.97959779	      5.09406712	      8.33164798	     40.26537670	      0.51177164	    -27.38136762	    -25.34736007	     -6.73182829	      8.71804581	      1.24855117	      8.26168603	     -5.24286668	     13.26170885
      4.32500000	     -9.18730069	      7.07428885	     -9.00220699	     -0.49606179	     -0.05891979	      0.62317014	     -9.12940176	     -6.39644709	      2.85349176	    -18.33275067	     10.14728948	      5.50606579	      8.76195591	     40.46684259	      0.92946641	    -26.88892514	    -26.39258441	     -6.80530962	      7.89398787	      1.08108039	      8.47332625	     -5.71439878	     13.19173610
      4.33000000	     -9.20892773	      7.42175269	     -8.86630193	     -0.48825922	     -0.05941226	      0.62279410	     -8.99235600	     -6.90813020	      2.52096524	    -19.38848183	      9.17680545	      6.02323067	      9.43786594	     40.63854695	      1.33144518	    -26.38918299	    -27.43865380	     -6.70088325	      7.23515824	      0.82485465	      8.66920185	     -6.14199501	     13.08298568
